<mxfile host="app.diagrams.net" agent="Mozilla/5.0 (Windows NT 10.0; Win64; x64) AppleWebKit/537.36 (KHTML, like Gecko) Chrome/136.0.0.0 Safari/537.36" version="26.2.13">
  <diagram name="Trang-1" id="EBByfiUbzizjP6wDf-_v">
    <mxGraphModel dx="1432" dy="651" grid="0" gridSize="10" guides="1" tooltips="1" connect="1" arrows="1" fold="1" page="0" pageScale="1" pageWidth="827" pageHeight="1169" math="0" shadow="0">
      <root>
        <mxCell id="0" />
        <mxCell id="1" parent="0" />
        <mxCell id="OcpvKMQ3eihPh7LtuoBv-7" value="&lt;span style=&quot;color: rgb(51, 51, 51); font-family: arial, sans-serif; text-wrap-mode: nowrap; background-color: rgb(255, 255, 255);&quot;&gt;&lt;font style=&quot;font-size: 12px;&quot;&gt;Flight&lt;/font&gt;&lt;/span&gt;" style="shape=umlLifeline;perimeter=lifelinePerimeter;whiteSpace=wrap;html=1;container=1;dropTarget=0;collapsible=0;recursiveResize=0;outlineConnect=0;portConstraint=eastwest;newEdgeStyle={&quot;curved&quot;:0,&quot;rounded&quot;:0};" vertex="1" parent="1">
          <mxGeometry x="514" y="50" width="100" height="752" as="geometry" />
        </mxCell>
        <mxCell id="OcpvKMQ3eihPh7LtuoBv-5" value="&lt;span style=&quot;color: rgb(51, 51, 51); font-family: arial, sans-serif; text-wrap-mode: nowrap; background-color: rgb(255, 255, 255);&quot;&gt;&lt;font style=&quot;font-size: 12px;&quot;&gt;WebsiteSystem&lt;/font&gt;&lt;/span&gt;" style="shape=umlLifeline;perimeter=lifelinePerimeter;whiteSpace=wrap;html=1;container=1;dropTarget=0;collapsible=0;recursiveResize=0;outlineConnect=0;portConstraint=eastwest;newEdgeStyle={&quot;curved&quot;:0,&quot;rounded&quot;:0};" vertex="1" parent="1">
          <mxGeometry x="321" y="50" width="100" height="756" as="geometry" />
        </mxCell>
        <mxCell id="OcpvKMQ3eihPh7LtuoBv-9" value="&lt;span style=&quot;color: rgb(51, 51, 51); font-family: arial, sans-serif; text-wrap-mode: nowrap; background-color: rgb(255, 255, 255);&quot;&gt;&lt;font style=&quot;font-size: 12px;&quot;&gt;Ticket&lt;/font&gt;&lt;/span&gt;" style="shape=umlLifeline;perimeter=lifelinePerimeter;whiteSpace=wrap;html=1;container=1;dropTarget=0;collapsible=0;recursiveResize=0;outlineConnect=0;portConstraint=eastwest;newEdgeStyle={&quot;curved&quot;:0,&quot;rounded&quot;:0};" vertex="1" parent="1">
          <mxGeometry x="714" y="50" width="100" height="752" as="geometry" />
        </mxCell>
        <mxCell id="OcpvKMQ3eihPh7LtuoBv-11" value="&lt;span style=&quot;color: rgb(51, 51, 51); font-family: arial, sans-serif; text-wrap-mode: nowrap; background-color: rgb(255, 255, 255);&quot;&gt;&lt;font style=&quot;font-size: 12px;&quot;&gt;Payment&lt;/font&gt;&lt;/span&gt;" style="shape=umlLifeline;perimeter=lifelinePerimeter;whiteSpace=wrap;html=1;container=1;dropTarget=0;collapsible=0;recursiveResize=0;outlineConnect=0;portConstraint=eastwest;newEdgeStyle={&quot;curved&quot;:0,&quot;rounded&quot;:0};" vertex="1" parent="1">
          <mxGeometry x="905" y="50" width="100" height="747" as="geometry" />
        </mxCell>
        <mxCell id="OcpvKMQ3eihPh7LtuoBv-13" value="&lt;span style=&quot;color: rgb(51, 51, 51); font-family: arial, sans-serif; text-wrap-mode: nowrap; background-color: rgb(255, 255, 255);&quot;&gt;&lt;font style=&quot;font-size: 12px;&quot;&gt;CreditCard&lt;/font&gt;&lt;/span&gt;" style="shape=umlLifeline;perimeter=lifelinePerimeter;whiteSpace=wrap;html=1;container=1;dropTarget=0;collapsible=0;recursiveResize=0;outlineConnect=0;portConstraint=eastwest;newEdgeStyle={&quot;curved&quot;:0,&quot;rounded&quot;:0};" vertex="1" parent="1">
          <mxGeometry x="1075" y="50" width="100" height="743" as="geometry" />
        </mxCell>
        <mxCell id="OcpvKMQ3eihPh7LtuoBv-15" value="&lt;span style=&quot;color: rgb(51, 51, 51); font-family: arial, sans-serif; text-wrap-mode: nowrap; background-color: rgb(255, 255, 255);&quot;&gt;&lt;font style=&quot;font-size: 12px;&quot;&gt;TicketDatabase&lt;/font&gt;&lt;/span&gt;" style="shape=umlLifeline;perimeter=lifelinePerimeter;whiteSpace=wrap;html=1;container=1;dropTarget=0;collapsible=0;recursiveResize=0;outlineConnect=0;portConstraint=eastwest;newEdgeStyle={&quot;curved&quot;:0,&quot;rounded&quot;:0};" vertex="1" parent="1">
          <mxGeometry x="1263" y="50" width="100" height="749" as="geometry" />
        </mxCell>
        <mxCell id="OcpvKMQ3eihPh7LtuoBv-16" value="" style="html=1;points=[[0,0,0,0,5],[0,1,0,0,-5],[1,0,0,0,5],[1,1,0,0,-5]];perimeter=orthogonalPerimeter;outlineConnect=0;targetShapes=umlLifeline;portConstraint=eastwest;newEdgeStyle={&quot;curved&quot;:0,&quot;rounded&quot;:0};" vertex="1" parent="1">
          <mxGeometry x="1308" y="168" width="10" height="72" as="geometry" />
        </mxCell>
        <mxCell id="OcpvKMQ3eihPh7LtuoBv-18" value="" style="html=1;verticalAlign=bottom;endArrow=block;curved=0;rounded=0;" edge="1" parent="1">
          <mxGeometry x="-0.825" y="37" width="80" relative="1" as="geometry">
            <mxPoint x="199" y="112" as="sourcePoint" />
            <mxPoint x="369.5" y="112" as="targetPoint" />
            <mxPoint as="offset" />
          </mxGeometry>
        </mxCell>
        <mxCell id="OcpvKMQ3eihPh7LtuoBv-19" value="Browse portal&amp;nbsp;" style="text;html=1;align=center;verticalAlign=middle;whiteSpace=wrap;rounded=0;" vertex="1" parent="1">
          <mxGeometry x="225" y="96" width="121" height="16" as="geometry" />
        </mxCell>
        <mxCell id="OcpvKMQ3eihPh7LtuoBv-20" value="" style="html=1;verticalAlign=bottom;endArrow=block;curved=0;rounded=0;" edge="1" parent="1">
          <mxGeometry x="-0.825" y="37" width="80" relative="1" as="geometry">
            <mxPoint x="200" y="148" as="sourcePoint" />
            <mxPoint x="371" y="148" as="targetPoint" />
            <mxPoint as="offset" />
          </mxGeometry>
        </mxCell>
        <mxCell id="OcpvKMQ3eihPh7LtuoBv-21" value="Enter date &amp;amp;destination" style="text;html=1;align=center;verticalAlign=middle;whiteSpace=wrap;rounded=0;" vertex="1" parent="1">
          <mxGeometry x="217" y="128" width="137" height="16" as="geometry" />
        </mxCell>
        <mxCell id="OcpvKMQ3eihPh7LtuoBv-22" value="" style="html=1;verticalAlign=bottom;endArrow=block;curved=0;rounded=0;" edge="1" parent="1">
          <mxGeometry x="-0.825" y="37" width="80" relative="1" as="geometry">
            <mxPoint x="371" y="176" as="sourcePoint" />
            <mxPoint x="562.5000000000002" y="176" as="targetPoint" />
            <mxPoint as="offset" />
          </mxGeometry>
        </mxCell>
        <mxCell id="OcpvKMQ3eihPh7LtuoBv-23" value="Check availability" style="text;html=1;align=center;verticalAlign=middle;whiteSpace=wrap;rounded=0;" vertex="1" parent="1">
          <mxGeometry x="378" y="155" width="177" height="16" as="geometry" />
        </mxCell>
        <mxCell id="OcpvKMQ3eihPh7LtuoBv-25" value="&lt;font style=&quot;font-size: 11px;&quot;&gt;Alternative&lt;/font&gt;" style="shape=umlFrame;whiteSpace=wrap;html=1;pointerEvents=0;" vertex="1" parent="1">
          <mxGeometry x="125" y="191" width="487" height="198" as="geometry" />
        </mxCell>
        <mxCell id="OcpvKMQ3eihPh7LtuoBv-27" value="[If no flights available]" style="text;html=1;align=center;verticalAlign=middle;whiteSpace=wrap;rounded=0;" vertex="1" parent="1">
          <mxGeometry x="104" y="214" width="113" height="50" as="geometry" />
        </mxCell>
        <mxCell id="OcpvKMQ3eihPh7LtuoBv-31" value="No filghts" style="html=1;verticalAlign=bottom;endArrow=open;dashed=1;endSize=8;curved=0;rounded=0;" edge="1" parent="1">
          <mxGeometry relative="1" as="geometry">
            <mxPoint x="562.54" y="234" as="sourcePoint" />
            <mxPoint x="370.46857142857135" y="234" as="targetPoint" />
          </mxGeometry>
        </mxCell>
        <mxCell id="OcpvKMQ3eihPh7LtuoBv-34" value="" style="html=1;verticalAlign=bottom;endArrow=open;dashed=1;endSize=8;curved=0;rounded=0;" edge="1" parent="1">
          <mxGeometry relative="1" as="geometry">
            <mxPoint x="369.5" y="267" as="sourcePoint" />
            <mxPoint x="198.49857142857135" y="267.21" as="targetPoint" />
          </mxGeometry>
        </mxCell>
        <mxCell id="OcpvKMQ3eihPh7LtuoBv-36" value="&lt;font style=&quot;font-size: 10px;&quot;&gt;Show &quot;No Flights Availabale&lt;/font&gt;" style="text;html=1;align=center;verticalAlign=middle;whiteSpace=wrap;rounded=0;" vertex="1" parent="1">
          <mxGeometry x="212" y="247" width="142" height="17" as="geometry" />
        </mxCell>
        <mxCell id="OcpvKMQ3eihPh7LtuoBv-38" value="[else]" style="text;html=1;align=center;verticalAlign=middle;whiteSpace=wrap;rounded=0;" vertex="1" parent="1">
          <mxGeometry x="60" y="291" width="185" height="16" as="geometry" />
        </mxCell>
        <mxCell id="OcpvKMQ3eihPh7LtuoBv-39" value="" style="endArrow=none;dashed=1;html=1;rounded=0;exitX=0;exitY=0.558;exitDx=0;exitDy=0;exitPerimeter=0;" edge="1" parent="1" source="OcpvKMQ3eihPh7LtuoBv-25">
          <mxGeometry width="50" height="50" relative="1" as="geometry">
            <mxPoint x="125" y="290" as="sourcePoint" />
            <mxPoint x="609" y="290" as="targetPoint" />
            <Array as="points">
              <mxPoint x="127" y="290" />
            </Array>
          </mxGeometry>
        </mxCell>
        <mxCell id="OcpvKMQ3eihPh7LtuoBv-40" value="Return available flights" style="html=1;verticalAlign=bottom;endArrow=open;dashed=1;endSize=8;curved=0;rounded=0;" edge="1" parent="1">
          <mxGeometry relative="1" as="geometry">
            <mxPoint x="562.54" y="324" as="sourcePoint" />
            <mxPoint x="370.46857142857135" y="324" as="targetPoint" />
          </mxGeometry>
        </mxCell>
        <mxCell id="OcpvKMQ3eihPh7LtuoBv-41" value="" style="html=1;verticalAlign=bottom;endArrow=open;dashed=1;endSize=8;curved=0;rounded=0;" edge="1" parent="1">
          <mxGeometry relative="1" as="geometry">
            <mxPoint x="368.5" y="362" as="sourcePoint" />
            <mxPoint x="197.49857142857135" y="362.21" as="targetPoint" />
          </mxGeometry>
        </mxCell>
        <mxCell id="OcpvKMQ3eihPh7LtuoBv-42" value="&lt;span style=&quot;font-size: 10px;&quot;&gt;Display flight list&lt;/span&gt;" style="text;html=1;align=center;verticalAlign=middle;whiteSpace=wrap;rounded=0;" vertex="1" parent="1">
          <mxGeometry x="217" y="339" width="142" height="17" as="geometry" />
        </mxCell>
        <mxCell id="OcpvKMQ3eihPh7LtuoBv-45" value="" style="shape=umlLifeline;perimeter=lifelinePerimeter;whiteSpace=wrap;html=1;container=1;dropTarget=0;collapsible=0;recursiveResize=0;outlineConnect=0;portConstraint=eastwest;newEdgeStyle={&quot;curved&quot;:0,&quot;rounded&quot;:0};participant=umlActor;" vertex="1" parent="1">
          <mxGeometry x="188" y="51" width="23" height="760" as="geometry" />
        </mxCell>
        <mxCell id="OcpvKMQ3eihPh7LtuoBv-46" value="" style="html=1;verticalAlign=bottom;endArrow=block;curved=0;rounded=0;" edge="1" parent="1">
          <mxGeometry x="-0.825" y="37" width="80" relative="1" as="geometry">
            <mxPoint x="200" y="421" as="sourcePoint" />
            <mxPoint x="371" y="421" as="targetPoint" />
            <mxPoint as="offset" />
          </mxGeometry>
        </mxCell>
        <mxCell id="OcpvKMQ3eihPh7LtuoBv-47" value="Select flight" style="text;html=1;align=center;verticalAlign=middle;whiteSpace=wrap;rounded=0;" vertex="1" parent="1">
          <mxGeometry x="222.5" y="401" width="121" height="16" as="geometry" />
        </mxCell>
        <mxCell id="OcpvKMQ3eihPh7LtuoBv-48" value="" style="html=1;verticalAlign=bottom;endArrow=block;curved=0;rounded=0;" edge="1" parent="1">
          <mxGeometry x="-0.825" y="37" width="80" relative="1" as="geometry">
            <mxPoint x="200" y="457" as="sourcePoint" />
            <mxPoint x="371" y="457" as="targetPoint" />
            <mxPoint as="offset" />
          </mxGeometry>
        </mxCell>
        <mxCell id="OcpvKMQ3eihPh7LtuoBv-49" value="Confirm booking" style="text;html=1;align=center;verticalAlign=middle;whiteSpace=wrap;rounded=0;" vertex="1" parent="1">
          <mxGeometry x="222.5" y="435" width="121" height="16" as="geometry" />
        </mxCell>
        <mxCell id="OcpvKMQ3eihPh7LtuoBv-50" value="" style="html=1;verticalAlign=bottom;endArrow=block;curved=0;rounded=0;" edge="1" parent="1" target="OcpvKMQ3eihPh7LtuoBv-9">
          <mxGeometry x="-0.825" y="37" width="80" relative="1" as="geometry">
            <mxPoint x="371" y="483" as="sourcePoint" />
            <mxPoint x="542" y="483" as="targetPoint" />
            <mxPoint as="offset" />
          </mxGeometry>
        </mxCell>
        <mxCell id="OcpvKMQ3eihPh7LtuoBv-51" value="Generate ticket" style="text;html=1;align=center;verticalAlign=middle;whiteSpace=wrap;rounded=0;" vertex="1" parent="1">
          <mxGeometry x="514" y="462" width="189" height="16" as="geometry" />
        </mxCell>
        <mxCell id="OcpvKMQ3eihPh7LtuoBv-52" value="Ticket generated" style="html=1;verticalAlign=bottom;endArrow=open;dashed=1;endSize=8;curved=0;rounded=0;" edge="1" parent="1" target="OcpvKMQ3eihPh7LtuoBv-5">
          <mxGeometry relative="1" as="geometry">
            <mxPoint x="763.0699999999999" y="514" as="sourcePoint" />
            <mxPoint x="570.9985714285714" y="514" as="targetPoint" />
          </mxGeometry>
        </mxCell>
        <mxCell id="OcpvKMQ3eihPh7LtuoBv-53" value="Show ticket" style="html=1;verticalAlign=bottom;endArrow=open;dashed=1;endSize=8;curved=0;rounded=0;" edge="1" parent="1" source="OcpvKMQ3eihPh7LtuoBv-5">
          <mxGeometry relative="1" as="geometry">
            <mxPoint x="391.06999999999994" y="543" as="sourcePoint" />
            <mxPoint x="198.99857142857135" y="543" as="targetPoint" />
          </mxGeometry>
        </mxCell>
      </root>
    </mxGraphModel>
  </diagram>
</mxfile>
